<svg width="500" height="500" viewBox="0 0 500 500" fill="none" xmlns="http://www.w3.org/2000/svg">
<g clip-path="url(#clip0_780_2)">
<circle cx="250" cy="250" r="250" fill="url(#paint0_radial_780_2)"/>
<circle cx="250" cy="250" r="196.5" stroke="url(#paint1_linear_780_2)" stroke-width="7"/>
<path d="M152.919 235.095C152.687 232.543 151.655 230.559 149.822 229.144C148.012 227.706 145.425 226.987 142.061 226.987C139.834 226.987 137.978 227.277 136.493 227.857C135.008 228.437 133.894 229.237 133.152 230.258C132.41 231.255 132.027 232.404 132.004 233.703C131.957 234.77 132.166 235.71 132.63 236.522C133.117 237.334 133.813 238.053 134.718 238.68C135.646 239.283 136.76 239.817 138.059 240.281C139.358 240.745 140.82 241.151 142.444 241.499L148.569 242.891C152.095 243.656 155.204 244.677 157.896 245.953C160.61 247.229 162.884 248.749 164.717 250.512C166.573 252.275 167.976 254.305 168.928 256.602C169.879 258.899 170.366 261.474 170.389 264.328C170.366 268.829 169.229 272.692 166.979 275.917C164.728 279.142 161.492 281.613 157.269 283.33C153.07 285.046 148 285.905 142.061 285.905C136.098 285.905 130.902 285.012 126.47 283.225C122.039 281.439 118.594 278.724 116.134 275.082C113.675 271.439 112.411 266.834 112.341 261.266H128.837C128.976 263.562 129.591 265.477 130.681 267.008C131.772 268.539 133.268 269.699 135.17 270.488C137.096 271.277 139.323 271.671 141.852 271.671C144.172 271.671 146.144 271.358 147.768 270.732C149.416 270.105 150.68 269.235 151.562 268.121C152.443 267.008 152.896 265.732 152.919 264.293C152.896 262.948 152.478 261.799 151.666 260.848C150.854 259.874 149.601 259.038 147.908 258.342C146.237 257.623 144.103 256.962 141.504 256.359L134.057 254.619C127.885 253.203 123.025 250.918 119.475 247.763C115.925 244.584 114.162 240.292 114.185 234.886C114.162 230.478 115.345 226.615 117.735 223.298C120.125 219.98 123.431 217.393 127.653 215.537C131.876 213.681 136.69 212.753 142.096 212.753C147.618 212.753 152.409 213.692 156.469 215.572C160.552 217.428 163.719 220.038 165.969 223.402C168.22 226.766 169.368 230.664 169.415 235.095H152.919ZM179.089 285V213.727H227.741V227.717H196.316V242.334H224.644V256.359H196.316V285H179.089ZM236.416 213.727H257.749L275.845 257.855H276.681L294.777 213.727H316.11V285H299.336V241.22H298.745L281.622 284.548H270.904L253.781 240.977H253.19V285H236.416V213.727ZM326.855 285V213.727H344.082V243.865H345.021L368.582 213.727H388.871L363.605 245.536L389.323 285H368.721L350.972 256.985L344.082 265.685V285H326.855Z" fill="white"/>
</g>
<defs>
<radialGradient id="paint0_radial_780_2" cx="0" cy="0" r="1" gradientUnits="userSpaceOnUse" gradientTransform="translate(250 250) rotate(90) scale(250)">
<stop/>
<stop offset="1" stop-color="#202020"/>
</radialGradient>
<linearGradient id="paint1_linear_780_2" x1="250" y1="50" x2="250" y2="450" gradientUnits="userSpaceOnUse">
<stop stop-color="#484848"/>
<stop offset="1" stop-color="#2A2A2A"/>
</linearGradient>
<clipPath id="clip0_780_2">
<rect width="500" height="500" fill="white"/>
</clipPath>
</defs>
</svg>
